<?xml version="1.0" encoding="utf-8"?>
<!DOCTYPE svg PUBLIC "-//W3C//DTD SVG 20010904//EN" "http://www.w3.org/TR/2001/REC-SVG-20010904/DTD/svg10.dtd">
<svg version="1.0" xmlns="http://www.w3.org/2000/svg" width="602pt" height="602pt" viewBox="0 0 602 602" style="" preserveAspectRatio="xMidYMid meet">
<g fill="#45413EFF" stroke="#45413EFF">
<path d="M 307.375 152.130 C 283.532 153.842 249.357 167.213 228.529 182.978 C 211.829 195.618 209.215 196.787 188.417 200.917 C 152.624 208.023 133.447 226.793 131.384 256.737 C 130.865 264.267 130.393 265.995 128.028 269.020 C 121.216 277.732 118.000 288.064 118.000 301.235 C 118.000 312.052 120.140 318.759 126.626 328.272 C 135.959 341.961 153.397 354.122 174.335 361.543 L 182.170 364.320 181.894 407.518 L 181.619 450.716 184.559 448.265 C 214.462 423.342 266.512 410.469 319.000 415.013 C 349.001 417.610 372.650 421.866 391.133 427.995 C 406.572 433.115 414.209 437.104 421.030 443.610 C 424.138 446.575 426.911 449.000 427.192 449.000 C 429.069 449.000 428.456 382.025 426.455 368.500 L 425.863 364.500 432.181 362.127 C 442.193 358.366 460.783 349.222 467.002 344.998 C 488.314 330.526 490.505 313.054 473.380 294.131 L 468.092 288.287 468.666 281.394 C 469.816 267.584 465.619 251.475 457.465 238.391 C 444.030 216.836 416.476 198.978 388.829 193.907 C 382.159 192.684 382.157 192.682 381.121 188.592 C 378.838 179.579 370.253 169.610 359.058 162.973 C 343.478 153.736 328.565 150.608 307.375 152.130 M 333.750 164.580 C 345.668 167.233 356.775 174.410 362.937 183.443 C 372.293 197.156 373.258 217.426 365.335 233.828 C 363.829 236.948 362.403 239.950 362.167 240.500 C 361.234 242.673 368.820 232.226 371.244 228.000 C 374.259 222.743 378.000 211.056 378.000 206.895 C 378.000 203.414 379.345 203.259 390.038 205.508 C 416.613 211.098 442.001 230.071 453.230 252.733 C 456.706 259.748 457.397 262.189 457.761 268.754 C 458.152 275.810 457.932 276.990 455.293 281.999 C 451.800 288.630 444.743 293.962 435.989 296.584 C 432.714 297.565 430.181 298.515 430.361 298.694 C 430.540 298.873 435.977 298.115 442.443 297.010 C 448.908 295.904 455.214 295.000 456.454 295.000 C 457.882 295.000 460.558 296.954 463.745 300.323 C 479.491 316.973 475.423 329.173 449.821 342.080 C 442.930 345.554 425.784 353.000 424.675 353.000 C 424.434 353.000 423.712 350.915 423.070 348.366 C 420.361 337.606 416.733 333.512 404.592 327.513 C 397.061 323.792 397.058 323.789 398.426 321.143 C 399.179 319.687 402.316 314.982 405.397 310.687 C 408.479 306.392 411.000 302.659 411.000 302.391 C 411.000 301.070 401.767 308.541 396.141 314.415 L 389.782 321.054 381.141 318.419 C 370.308 315.114 352.396 311.021 348.716 311.009 C 345.940 311.000 345.933 310.984 346.594 305.750 C 347.703 296.967 351.839 282.278 355.773 273.149 L 359.500 264.500 353.894 270.080 C 347.309 276.634 342.467 284.891 337.494 298.045 L 333.895 307.561 304.698 307.220 C 288.639 307.033 274.915 306.687 274.200 306.452 C 272.270 305.817 268.450 296.408 267.115 289.000 C 265.463 279.837 265.251 277.166 265.009 262.500 C 264.748 246.627 263.863 249.320 261.440 273.366 C 260.459 283.094 259.947 294.196 260.229 299.597 L 260.719 308.962 257.110 309.530 C 248.171 310.935 230.799 314.197 228.040 314.989 C 225.186 315.807 224.801 315.574 221.756 311.180 C 218.855 306.996 215.472 300.509 210.710 290.000 C 209.838 288.075 208.188 283.575 207.045 280.000 L 204.966 273.500 205.574 281.500 C 205.909 285.900 206.606 291.750 207.125 294.500 C 207.643 297.250 208.308 301.075 208.604 303.000 C 208.899 304.925 210.015 309.381 211.085 312.902 C 212.154 316.423 212.910 319.348 212.764 319.402 C 208.976 320.803 199.777 326.478 196.150 329.650 C 191.218 333.965 185.749 342.978 184.510 348.834 C 183.682 352.746 182.955 352.695 171.491 347.928 C 153.810 340.577 138.846 328.711 132.487 317.000 C 129.669 311.811 129.504 310.879 129.566 300.500 C 129.636 288.760 130.871 282.616 133.918 278.853 C 135.676 276.682 135.939 276.631 137.655 278.130 C 141.462 281.458 151.800 285.000 157.704 285.000 C 159.921 285.000 159.399 284.411 154.205 281.054 C 145.722 275.571 142.817 270.878 142.242 261.721 C 141.888 256.089 142.261 253.105 143.935 248.161 C 146.701 239.993 153.053 229.969 158.338 225.434 C 170.252 215.210 194.527 208.518 207.065 212.002 C 211.742 213.301 218.096 218.826 222.203 225.164 L 225.500 230.253 225.582 221.876 C 225.707 209.193 229.278 200.233 238.023 190.665 C 257.466 169.392 301.477 157.399 333.750 164.580 M 330.500 320.494 C 370.696 324.687 400.587 333.590 409.322 343.971 C 414.430 350.042 416.910 369.216 417.042 403.658 C 417.087 415.511 416.940 425.393 416.716 425.618 C 416.491 425.842 413.651 424.840 410.404 423.390 C 374.158 407.207 304.166 398.774 261.500 405.451 C 240.480 408.740 218.390 415.497 202.363 423.541 C 197.545 425.959 193.527 427.839 193.434 427.719 C 193.341 427.598 194.087 409.100 195.092 386.611 C 196.892 346.327 196.955 345.666 199.374 342.012 C 203.848 335.250 217.801 328.105 233.756 324.404 C 256.696 319.084 300.146 317.328 330.500 320.494 "/></g>
</svg>
